<?xml version="1.0" encoding="utf-8"?>
<!-- Generator: Adobe Illustrator 26.0.1, SVG Export Plug-In . SVG Version: 6.00 Build 0)  -->
<svg version="1.1" id="Layer_1" xmlns="http://www.w3.org/2000/svg" xmlns:xlink="http://www.w3.org/1999/xlink" x="0px" y="0px"
	 viewBox="0 0 150 100" style="enable-background:new 0 0 150 100;" xml:space="preserve">
<style type="text/css">
	.st0{fill:#4B1B01;}
	.st1{fill:#FFCE07;}
	.st2{fill:#A5B14E;}
</style>
<g>
	<g>
		<g>
			<path class="st0" d="M5.45,72.07C5.49,74.43,7,75.4,8.75,75.4c1.25,0,2-0.22,2.66-0.5l0.3,1.25c-0.61,0.28-1.67,0.6-3.19,0.6
				c-2.96,0-4.72-1.94-4.72-4.84s1.71-5.18,4.5-5.18c3.13,0,3.97,2.76,3.97,4.52c0,0.36-0.04,0.63-0.06,0.81H5.45z M10.57,70.82
				c0.02-1.11-0.46-2.84-2.42-2.84c-1.77,0-2.54,1.63-2.68,2.84H10.57z"/>
			<path class="st0" d="M19.74,76.55l-0.14-1.21h-0.06c-0.54,0.75-1.57,1.43-2.94,1.43c-1.94,0-2.94-1.37-2.94-2.76
				c0-2.32,2.06-3.59,5.77-3.57v-0.2c0-0.79-0.22-2.22-2.18-2.22c-0.89,0-1.83,0.28-2.5,0.71l-0.4-1.15
				c0.79-0.52,1.94-0.85,3.15-0.85c2.94,0,3.65,2,3.65,3.93v3.59c0,0.83,0.04,1.65,0.16,2.3H19.74z M19.48,71.65
				c-1.9-0.04-4.07,0.3-4.07,2.16c0,1.13,0.75,1.67,1.65,1.67c1.25,0,2.04-0.79,2.32-1.61c0.06-0.18,0.1-0.38,0.1-0.56V71.65z"/>
			<path class="st0" d="M26,64.19v2.76h2.5v1.33H26v5.18c0,1.19,0.34,1.86,1.31,1.86c0.46,0,0.79-0.06,1.01-0.12l0.08,1.31
				c-0.34,0.14-0.87,0.24-1.55,0.24c-0.81,0-1.47-0.26-1.88-0.73c-0.5-0.52-0.67-1.37-0.67-2.5v-5.24h-1.49v-1.33h1.49v-2.3
				L26,64.19z"/>
			<path class="st0" d="M31.32,72.07c0.04,2.36,1.55,3.33,3.29,3.33c1.25,0,2-0.22,2.66-0.5l0.3,1.25c-0.61,0.28-1.67,0.6-3.19,0.6
				c-2.96,0-4.72-1.94-4.72-4.84s1.71-5.18,4.5-5.18c3.13,0,3.97,2.76,3.97,4.52c0,0.36-0.04,0.63-0.06,0.81H31.32z M36.44,70.82
				c0.02-1.11-0.46-2.84-2.42-2.84c-1.77,0-2.54,1.63-2.68,2.84H36.44z"/>
			<path class="st0" d="M40.28,69.95c0-1.13-0.02-2.1-0.08-3h1.53l0.06,1.88h0.08c0.44-1.29,1.49-2.1,2.66-2.1
				c0.2,0,0.34,0.02,0.5,0.06v1.65c-0.18-0.04-0.36-0.06-0.6-0.06c-1.23,0-2.1,0.93-2.34,2.24c-0.04,0.24-0.08,0.52-0.08,0.81v5.12
				h-1.73V69.95z"/>
			<path class="st0" d="M47.9,66.95l2.1,5.67c0.22,0.63,0.46,1.39,0.62,1.96h0.04c0.18-0.58,0.38-1.31,0.61-2l1.9-5.63h1.85
				L52.4,73.8c-1.25,3.29-2.1,4.98-3.29,6.01c-0.85,0.75-1.71,1.05-2.14,1.13l-0.44-1.47c0.44-0.14,1.01-0.42,1.53-0.85
				c0.48-0.38,1.07-1.05,1.47-1.94c0.08-0.18,0.14-0.32,0.14-0.42c0-0.1-0.04-0.24-0.12-0.46L46,66.95H47.9z"/>
			<path class="st0" d="M77.63,62.47h1.75v5.99h0.04c0.28-0.5,0.71-0.93,1.25-1.23c0.52-0.3,1.13-0.5,1.79-0.5
				c1.29,0,3.35,0.79,3.35,4.11v5.71h-1.75v-5.52c0-1.55-0.58-2.86-2.22-2.86c-1.13,0-2.02,0.79-2.34,1.75
				c-0.1,0.24-0.12,0.5-0.12,0.83v5.79h-1.75V62.47z"/>
			<path class="st0" d="M93.96,76.55l-0.14-1.21h-0.06c-0.54,0.75-1.57,1.43-2.94,1.43c-1.94,0-2.94-1.37-2.94-2.76
				c0-2.32,2.06-3.59,5.77-3.57v-0.2c0-0.79-0.22-2.22-2.18-2.22c-0.89,0-1.83,0.28-2.5,0.71l-0.4-1.15
				c0.79-0.52,1.94-0.85,3.15-0.85c2.94,0,3.65,2,3.65,3.93v3.59c0,0.83,0.04,1.65,0.16,2.3H93.96z M93.7,71.65
				c-1.9-0.04-4.07,0.3-4.07,2.16c0,1.13,0.75,1.67,1.65,1.67c1.25,0,2.04-0.79,2.32-1.61c0.06-0.18,0.1-0.38,0.1-0.56V71.65z"/>
			<path class="st0" d="M98.2,69.55c0-0.99-0.02-1.81-0.08-2.6h1.55l0.1,1.59h0.04c0.48-0.91,1.59-1.81,3.17-1.81
				c1.33,0,3.39,0.79,3.39,4.09v5.73h-1.75v-5.54c0-1.55-0.58-2.84-2.22-2.84c-1.15,0-2.04,0.81-2.34,1.79
				c-0.08,0.22-0.12,0.52-0.12,0.81v5.77H98.2V69.55z"/>
			<path class="st0" d="M117.48,66.95c-0.04,0.69-0.08,1.47-0.08,2.64v5.57c0,2.2-0.44,3.55-1.37,4.38
				c-0.93,0.87-2.28,1.15-3.49,1.15c-1.15,0-2.42-0.28-3.19-0.79l0.44-1.33c0.63,0.4,1.63,0.75,2.82,0.75
				c1.79,0,3.09-0.93,3.09-3.35v-1.07h-0.04c-0.54,0.89-1.57,1.61-3.06,1.61c-2.38,0-4.09-2.02-4.09-4.68c0-3.25,2.12-5.1,4.32-5.1
				c1.67,0,2.58,0.87,3,1.67h0.04l0.08-1.45H117.48z M115.68,70.74c0-0.3-0.02-0.56-0.1-0.79c-0.32-1.01-1.17-1.84-2.44-1.84
				c-1.67,0-2.86,1.41-2.86,3.63c0,1.88,0.95,3.45,2.84,3.45c1.07,0,2.04-0.67,2.42-1.79c0.1-0.3,0.14-0.63,0.14-0.93V70.74z"/>
			<path class="st0" d="M128.99,71.67c0,3.55-2.46,5.1-4.78,5.1c-2.6,0-4.6-1.9-4.6-4.94c0-3.21,2.1-5.1,4.76-5.1
				C127.12,66.73,128.99,68.74,128.99,71.67z M121.37,71.77c0,2.1,1.21,3.69,2.92,3.69c1.67,0,2.92-1.57,2.92-3.73
				c0-1.63-0.81-3.69-2.88-3.69S121.37,69.95,121.37,71.77z"/>
			<path class="st0" d="M139.22,73.94c0,0.99,0.02,1.86,0.08,2.62h-1.55l-0.1-1.57h-0.04c-0.46,0.77-1.47,1.79-3.17,1.79
				c-1.51,0-3.31-0.83-3.31-4.21v-5.61h1.75v5.32c0,1.83,0.56,3.06,2.14,3.06c1.17,0,1.98-0.81,2.3-1.59
				c0.1-0.26,0.16-0.58,0.16-0.89v-5.89h1.75V73.94z"/>
			<path class="st0" d="M144.22,64.19v2.76h2.5v1.33h-2.5v5.18c0,1.19,0.34,1.86,1.31,1.86c0.46,0,0.79-0.06,1.01-0.12l0.08,1.31
				c-0.34,0.14-0.87,0.24-1.55,0.24c-0.81,0-1.47-0.26-1.88-0.73c-0.5-0.52-0.67-1.37-0.67-2.5v-5.24h-1.49v-1.33h1.49v-2.3
				L144.22,64.19z"/>
		</g>
	</g>
	<g>
		<g>
			<path class="st0" d="M59.09,62.59v13.96h13.96V62.59H59.09z M60.39,75.25V63.89h11.36v11.36H60.39z"/>
			<g>
				<circle class="st1" cx="66.02" cy="69.52" r="2.19"/>
			</g>
		</g>
	</g>
	<g>
		<g>
			<path class="st2" d="M6.56,91.84L4.49,83.7H5.6l0.97,4.12c0.24,1.01,0.46,2.03,0.6,2.81H7.2c0.13-0.81,0.39-1.78,0.66-2.83
				l1.09-4.11h1.1l0.99,4.13c0.23,0.97,0.45,1.93,0.57,2.79h0.02c0.17-0.89,0.4-1.8,0.65-2.81l1.08-4.11h1.08l-2.31,8.14h-1.1
				L10,87.6c-0.25-1.04-0.42-1.84-0.53-2.66H9.44c-0.14,0.81-0.33,1.61-0.63,2.66l-1.16,4.24H6.56z"/>
			<path class="st2" d="M15.35,83.26h1.06v3.65h0.02c0.17-0.3,0.44-0.57,0.76-0.75c0.31-0.18,0.69-0.3,1.09-0.3
				c0.79,0,2.04,0.48,2.04,2.5v3.48h-1.06v-3.36c0-0.94-0.35-1.74-1.35-1.74c-0.69,0-1.23,0.48-1.43,1.06
				c-0.06,0.15-0.07,0.3-0.07,0.51v3.53h-1.06V83.26z"/>
			<path class="st2" d="M22.65,89.11c0.02,1.44,0.94,2.03,2.01,2.03c0.76,0,1.22-0.13,1.62-0.3l0.18,0.76
				c-0.37,0.17-1.01,0.36-1.95,0.36c-1.8,0-2.88-1.18-2.88-2.95c0-1.76,1.04-3.15,2.74-3.15c1.91,0,2.42,1.68,2.42,2.75
				c0,0.22-0.02,0.39-0.04,0.5H22.65z M25.77,88.35c0.01-0.68-0.28-1.73-1.47-1.73c-1.08,0-1.55,0.99-1.63,1.73H25.77z"/>
			<path class="st2" d="M28.11,87.82c0-0.69-0.01-1.28-0.05-1.82H29l0.04,1.15h0.05c0.27-0.79,0.91-1.28,1.62-1.28
				c0.12,0,0.21,0.01,0.3,0.04v1c-0.11-0.02-0.22-0.04-0.36-0.04c-0.75,0-1.28,0.57-1.43,1.37c-0.02,0.14-0.05,0.31-0.05,0.5v3.12
				h-1.05V87.82z"/>
			<path class="st2" d="M32.54,89.11c0.02,1.44,0.94,2.03,2.01,2.03c0.76,0,1.22-0.13,1.62-0.3l0.18,0.76
				c-0.37,0.17-1.01,0.36-1.95,0.36c-1.8,0-2.88-1.18-2.88-2.95c0-1.76,1.04-3.15,2.74-3.15c1.91,0,2.42,1.68,2.42,2.75
				c0,0.22-0.02,0.39-0.04,0.5H32.54z M35.65,88.35c0.01-0.68-0.28-1.73-1.47-1.73c-1.08,0-1.55,0.99-1.63,1.73H35.65z"/>
			<path class="st2" d="M40.6,91.84V83.7h1.15l2.61,4.12c0.6,0.95,1.08,1.81,1.46,2.65l0.02-0.01c-0.1-1.09-0.12-2.08-0.12-3.35
				V83.7h0.99v8.14h-1.06l-2.59-4.13c-0.57-0.91-1.11-1.84-1.52-2.72L41.5,85c0.06,1.03,0.08,2.01,0.08,3.36v3.48H40.6z"/>
			<path class="st2" d="M51.75,91.84l-0.08-0.74h-0.04c-0.33,0.46-0.95,0.87-1.79,0.87c-1.18,0-1.79-0.83-1.79-1.68
				c0-1.41,1.26-2.19,3.52-2.17V88c0-0.48-0.13-1.35-1.33-1.35c-0.54,0-1.11,0.17-1.52,0.44l-0.24-0.7
				c0.48-0.31,1.18-0.52,1.92-0.52c1.79,0,2.22,1.22,2.22,2.39v2.19c0,0.51,0.02,1,0.1,1.4H51.75z M51.59,88.86
				c-1.16-0.02-2.48,0.18-2.48,1.32c0,0.69,0.46,1.01,1,1.01c0.76,0,1.24-0.48,1.41-0.98c0.04-0.11,0.06-0.23,0.06-0.34V88.86z"/>
			<path class="st2" d="M55.57,84.32V86h1.52v0.81h-1.52v3.15c0,0.72,0.21,1.14,0.8,1.14c0.28,0,0.48-0.04,0.62-0.07l0.05,0.8
				c-0.21,0.08-0.53,0.14-0.94,0.14c-0.5,0-0.89-0.16-1.15-0.45c-0.3-0.31-0.41-0.83-0.41-1.52V86.8h-0.91V86h0.91v-1.4L55.57,84.32
				z"/>
			<path class="st2" d="M63.18,90.25c0,0.6,0.01,1.14,0.05,1.59h-0.94l-0.06-0.95H62.2c-0.28,0.47-0.89,1.09-1.93,1.09
				c-0.92,0-2.02-0.51-2.02-2.56V86h1.06v3.24c0,1.11,0.34,1.86,1.3,1.86c0.71,0,1.21-0.5,1.4-0.97c0.06-0.16,0.1-0.35,0.1-0.54V86
				h1.06V90.25z"/>
			<path class="st2" d="M64.94,87.82c0-0.69-0.01-1.28-0.05-1.82h0.93l0.04,1.15h0.05c0.27-0.79,0.91-1.28,1.62-1.28
				c0.12,0,0.21,0.01,0.3,0.04v1c-0.11-0.02-0.22-0.04-0.36-0.04c-0.75,0-1.28,0.57-1.43,1.37c-0.02,0.14-0.05,0.31-0.05,0.5v3.12
				h-1.05V87.82z"/>
			<path class="st2" d="M69.37,89.11c0.02,1.44,0.94,2.03,2.01,2.03c0.76,0,1.22-0.13,1.62-0.3l0.18,0.76
				c-0.37,0.17-1.01,0.36-1.95,0.36c-1.8,0-2.88-1.18-2.88-2.95c0-1.76,1.04-3.15,2.74-3.15c1.91,0,2.42,1.68,2.42,2.75
				c0,0.22-0.02,0.39-0.04,0.5H69.37z M72.48,88.35c0.01-0.68-0.28-1.73-1.47-1.73c-1.08,0-1.55,0.99-1.63,1.73H72.48z"/>
			<path class="st2" d="M77.39,87.58c0-0.6-0.01-1.1-0.05-1.58h0.93l0.05,0.94h0.04c0.33-0.56,0.87-1.08,1.84-1.08
				c0.8,0,1.4,0.48,1.66,1.17h0.02c0.18-0.33,0.41-0.58,0.65-0.76c0.35-0.27,0.74-0.41,1.29-0.41c0.77,0,1.92,0.51,1.92,2.54v3.44
				H84.7v-3.31c0-1.12-0.41-1.8-1.27-1.8c-0.6,0-1.08,0.45-1.26,0.97c-0.05,0.15-0.08,0.34-0.08,0.53v3.61h-1.04v-3.5
				c0-0.93-0.41-1.61-1.22-1.61c-0.66,0-1.15,0.53-1.32,1.06c-0.06,0.16-0.08,0.34-0.08,0.52v3.53h-1.04V87.58z"/>
			<path class="st2" d="M88.06,89.11c0.02,1.44,0.94,2.03,2.01,2.03c0.76,0,1.22-0.13,1.62-0.3l0.18,0.76
				c-0.37,0.17-1.01,0.36-1.95,0.36c-1.8,0-2.88-1.18-2.88-2.95c0-1.76,1.04-3.15,2.74-3.15c1.91,0,2.42,1.68,2.42,2.75
				c0,0.22-0.02,0.39-0.04,0.5H88.06z M91.18,88.35c0.01-0.68-0.28-1.73-1.47-1.73c-1.08,0-1.55,0.99-1.63,1.73H91.18z"/>
			<path class="st2" d="M94.11,89.11c0.02,1.44,0.94,2.03,2.01,2.03c0.76,0,1.22-0.13,1.62-0.3l0.18,0.76
				c-0.37,0.17-1.01,0.36-1.95,0.36c-1.8,0-2.88-1.18-2.88-2.95c0-1.76,1.04-3.15,2.74-3.15c1.91,0,2.42,1.68,2.42,2.75
				c0,0.22-0.02,0.39-0.04,0.5H94.11z M97.23,88.35c0.01-0.68-0.28-1.73-1.47-1.73c-1.08,0-1.55,0.99-1.63,1.73H97.23z"/>
			<path class="st2" d="M100.86,84.32V86h1.52v0.81h-1.52v3.15c0,0.72,0.21,1.14,0.8,1.14c0.28,0,0.48-0.04,0.62-0.07l0.05,0.8
				c-0.21,0.08-0.53,0.14-0.94,0.14c-0.5,0-0.89-0.16-1.15-0.45c-0.3-0.31-0.41-0.83-0.41-1.52V86.8h-0.91V86h0.91v-1.4
				L100.86,84.32z"/>
			<path class="st2" d="M103.43,90.76c0.31,0.21,0.87,0.42,1.4,0.42c0.77,0,1.14-0.39,1.14-0.87c0-0.51-0.3-0.79-1.09-1.08
				c-1.05-0.37-1.55-0.95-1.55-1.66c0-0.94,0.76-1.72,2.02-1.72c0.59,0,1.11,0.17,1.44,0.36L106.52,87
				c-0.23-0.15-0.65-0.34-1.2-0.34c-0.63,0-0.98,0.36-0.98,0.8c0,0.48,0.35,0.7,1.11,0.99c1.01,0.39,1.53,0.89,1.53,1.76
				c0,1.03-0.8,1.75-2.19,1.75c-0.64,0-1.23-0.16-1.64-0.4L103.43,90.76z"/>
			<path class="st2" d="M110.96,83.7h4.39v0.88h-3.33v2.71h3.08v0.87h-3.08v3.68h-1.05V83.7z"/>
			<path class="st2" d="M116.6,83.26h1.06v8.58h-1.06V83.26z"/>
			<path class="st2" d="M122.69,91.84l-0.08-0.74h-0.04c-0.33,0.46-0.95,0.87-1.79,0.87c-1.18,0-1.79-0.83-1.79-1.68
				c0-1.41,1.26-2.19,3.52-2.17V88c0-0.48-0.13-1.35-1.33-1.35c-0.54,0-1.11,0.17-1.52,0.44l-0.24-0.7
				c0.48-0.31,1.18-0.52,1.92-0.52c1.79,0,2.22,1.22,2.22,2.39v2.19c0,0.51,0.02,1,0.1,1.4H122.69z M122.53,88.86
				c-1.16-0.02-2.48,0.18-2.48,1.32c0,0.69,0.46,1.01,1,1.01c0.76,0,1.24-0.48,1.41-0.98c0.04-0.11,0.06-0.23,0.06-0.34V88.86z"/>
			<path class="st2" d="M125.59,86l1.15,3.29c0.19,0.53,0.35,1.01,0.47,1.5h0.04c0.13-0.48,0.3-0.97,0.5-1.5l1.14-3.29h1.11
				l-2.3,5.85h-1.01L124.46,86H125.59z"/>
			<path class="st2" d="M136.16,88.87c0,2.16-1.5,3.1-2.91,3.1c-1.58,0-2.8-1.16-2.8-3.01c0-1.96,1.28-3.1,2.9-3.1
				C135.03,85.86,136.16,87.08,136.16,88.87z M131.52,88.93c0,1.28,0.74,2.25,1.78,2.25c1.01,0,1.78-0.95,1.78-2.27
				c0-0.99-0.5-2.25-1.75-2.25C132.07,86.66,131.52,87.82,131.52,88.93z"/>
			<path class="st2" d="M142.4,90.25c0,0.6,0.01,1.14,0.05,1.59h-0.94l-0.06-0.95h-0.02c-0.28,0.47-0.89,1.09-1.93,1.09
				c-0.92,0-2.02-0.51-2.02-2.56V86h1.06v3.24c0,1.11,0.34,1.86,1.3,1.86c0.71,0,1.21-0.5,1.4-0.97c0.06-0.16,0.1-0.35,0.1-0.54V86
				h1.06V90.25z"/>
			<path class="st2" d="M144.16,87.82c0-0.69-0.01-1.28-0.05-1.82h0.93l0.04,1.15h0.05c0.27-0.79,0.91-1.28,1.62-1.28
				c0.12,0,0.21,0.01,0.3,0.04v1c-0.11-0.02-0.22-0.04-0.36-0.04c-0.75,0-1.28,0.57-1.43,1.37c-0.02,0.14-0.05,0.31-0.05,0.5v3.12
				h-1.05V87.82z"/>
		</g>
	</g>
	<g>
		<path class="st1" d="M65.1,28.81c0.87,0,1.63-0.32,2.28-0.97c0.64-0.65,0.97-1.38,0.97-2.21c0-0.65-0.23-1.18-0.69-1.59
			c-0.46-0.41-1.01-0.62-1.66-0.62c-0.79,0-1.5,0.31-2.14,0.93c-0.65,0.62-0.97,1.33-0.97,2.11c0,0.65,0.22,1.2,0.66,1.66
			C63.98,28.58,64.5,28.81,65.1,28.81z"/>
		<path class="st1" d="M146.42,43.6c-1.54,3.59-3.06,6.45-4.55,8.57c-1.49,2.12-3.19,3.18-5.1,3.18c-1.18,0-1.94-0.55-2.28-1.66
			c-0.34-1.11-0.51-2.26-0.51-3.46c0-0.83,0.07-1.68,0.2-2.56c0.5-1.47,1.16-2.98,1.97-4.53c0.82-1.54,1.7-3.01,2.65-4.39
			c0.95-1.38,1.88-2.51,2.79-3.39c0.14,0.83,0.7,1.24,1.7,1.24c0.68,0,1.31-0.26,1.9-0.79c0.59-0.53,0.88-1.14,0.88-1.83
			c0-0.6-0.19-1.04-0.58-1.31c-0.39-0.28-0.85-0.41-1.39-0.41c-0.54,0-1.04,0.14-1.49,0.41c-0.45,0.28-0.93,0.67-1.43,1.18
			c-1,0.92-2.03,2.18-3.09,3.77c-1.06,1.59-2.03,3.21-2.89,4.87c0.27-1.34,0.41-2.63,0.41-3.87c0-1.34-0.26-2.49-0.78-3.46
			c-0.52-0.97-1.57-1.45-3.16-1.45c-1.4,0-2.54,0.46-3.4,1.38c-0.86,0.92-1.61,2.03-2.24,3.32c-0.45,0.88-0.88,1.8-1.29,2.76
			s-0.75,1.77-1.02,2.42c0,0,0,0,0,0c-0.41,0.97-0.95,2.11-1.63,3.42c-0.68,1.31-1.42,2.6-2.21,3.87c-0.79,1.27-1.61,2.32-2.45,3.15
			c-0.84,0.83-1.62,1.24-2.35,1.24c-0.91,0-1.36-0.69-1.36-2.07c0-1.24,0.27-2.77,0.82-4.6c0.54-1.82,1.32-3.67,2.34-5.56
			c1.02-1.89,2.21-3.53,3.57-4.91c-0.54,0.09-1.06,0.07-1.56-0.07c-0.5-0.14-1-0.21-1.49-0.21c-1.09,0-1.93,0.41-2.52,1.24
			c-0.59,0.83-1.22,1.87-1.9,3.11c-0.45,0.88-1.09,2.03-1.9,3.46c-0.81,1.43-1.71,2.87-2.68,4.32c-0.97,1.45-2,2.66-3.06,3.63
			c-1.06,0.97-2.1,1.45-3.09,1.45c-1.13,0-1.7-0.76-1.7-2.28c0-1.47,0.38-3.11,1.16-4.91c0.77-1.8,1.75-3.58,2.96-5.36
			c1.2-1.77,2.49-3.36,3.87-4.77c1.38-1.41,2.68-2.43,3.91-3.08c1-0.51,1.88-0.76,2.65-0.76c1.63,0,2.69,0.81,3.19,2.42
			c0.36,0.09,0.66,0.05,0.88-0.14c0.23-0.18,0.34-0.42,0.34-0.69c0-0.41-0.16-0.78-0.48-1.11c-0.72-0.78-1.56-1.35-2.51-1.69
			c-0.95-0.35-1.95-0.52-2.99-0.52c-2.13,0-4.17,0.62-6.12,1.87c-1.95,1.24-3.67,2.86-5.16,4.84c-1.49,1.98-2.67,4.06-3.53,6.22
			c-0.02,0.04-0.03,0.08-0.05,0.12c0,0,0,0.01,0,0.01c-1.37,2.96-2.8,5.35-4.3,7.16c-1.77,2.14-3.38,3.22-4.82,3.22
			c-1.9,0-2.86-1.43-2.86-4.29c0-0.92,0.18-2.12,0.54-3.59c0.36-1.47,0.81-2.86,1.36-4.15c3.35-3.13,6.13-6.5,8.32-10.09
			c1.83-3,3.45-5.99,4.86-8.99c0.28-0.6,0.55-1.19,0.82-1.79c0.32-0.71,0.6-1.38,0.82-2c0.18-0.51,0.33-1,0.44-1.45
			c0.25-1.01,0.37-1.89,0.37-2.63c0-1.06-0.21-1.85-0.64-2.39c-0.43-0.53-1.01-0.8-1.73-0.8c-0.91,0-1.96,0.45-3.16,1.35
			c-1.2,0.89-2.31,2.23-3.35,4.02c0,0.01-0.01,0.02-0.01,0.03c-0.65,1.12-1.31,2.32-1.97,3.59c-0.67,1.28-1.33,2.63-2,4.05
			c-1.34,2.83-2.56,5.71-3.67,8.64c-1.11,2.93-2.03,5.68-2.75,8.26c-0.06,0.21-0.13,0.43-0.19,0.65c-1.53,3.52-3.14,6.31-4.84,8.37
			c-1.77,2.14-3.38,3.22-4.82,3.22c-1.9,0-2.86-1.43-2.86-4.29c0-0.92,0.18-2.12,0.54-3.59c0.36-1.47,0.81-2.86,1.36-4.15
			c3.35-3.13,6.13-6.5,8.32-10.09c2.2-3.59,4.09-7.19,5.67-10.78c0.26-0.58,0.49-1.13,0.69-1.65c0.24-0.65,0.43-1.25,0.57-1.81
			c0.18-0.71,0.29-1.35,0.34-1.93c0.02-0.24,0.03-0.48,0.03-0.7c0-1.06-0.22-1.85-0.64-2.39c-0.43-0.53-1.01-0.8-1.73-0.8
			c-0.91,0-1.96,0.45-3.16,1.35c-0.3,0.22-0.59,0.47-0.87,0.75c-0.81,0.78-1.57,1.77-2.3,2.98c-0.06,0.1-0.12,0.21-0.19,0.32
			c-1.31,2.26-2.64,4.8-3.98,7.64c-1.34,2.83-2.56,5.71-3.67,8.64c-1.11,2.93-2.03,5.68-2.75,8.26c-0.07,0.22-0.13,0.44-0.2,0.68
			c-0.46,1.06-0.99,2.19-1.6,3.4c-0.7,1.38-1.46,2.67-2.28,3.87c-0.82,1.2-1.69,2.18-2.62,2.94c-0.93,0.76-1.87,1.14-2.82,1.14
			c-0.72,0-1.23-0.21-1.53-0.62c-0.29-0.41-0.44-0.92-0.44-1.52c0-0.83,0.26-2,0.78-3.53c0.52-1.52,1.16-3.16,1.9-4.91
			c0.75-1.75,1.5-3.46,2.28-5.11c0.77-1.66,1.38-3.04,1.83-4.15c0.32-0.74,0.48-1.24,0.48-1.52c0-0.28-0.15-0.52-0.44-0.73
			c-0.3-0.21-0.78-0.29-1.46-0.24l-3.74,0.14c0.09,0.14,0.25,0.38,0.47,0.73c0.23,0.35,0.34,0.75,0.34,1.21
			c0,0.28-0.07,0.6-0.2,0.97l-4.06,10.55c-0.15,0.29-0.3,0.59-0.45,0.89c-0.75,1.41-1.55,2.73-2.41,3.97
			c-0.86,1.24-1.73,2.27-2.62,3.08c-0.88,0.81-1.71,1.21-2.48,1.21c-0.32,0-0.61-0.13-0.88-0.38c-0.27-0.25-0.41-0.75-0.41-1.49
			c0-0.51,0.07-1.13,0.2-1.87c0.18-0.97,0.57-2.2,1.16-3.7c0.59-1.5,1.28-3.08,2.07-4.73c0.79-1.66,1.56-3.2,2.31-4.63
			c0.75-1.43,1.62-3.06,2.62-4.91c-0.14-0.05-0.36-0.07-0.68-0.07c-0.91,0-2.12,0.37-3.64,1.11c-1.52,0.74-3.04,1.61-4.55,2.63
			c-1.52,1.01-2.78,1.98-3.77,2.9c-0.91,0.78-1.83,1.71-2.79,2.76c-0.95,1.06-1.88,2.19-2.79,3.39c1.13-2.3,2.37-4.78,3.7-7.43
			c1.34-2.65,2.69-5.28,4.08-7.88c1.38-2.6,2.69-5.03,3.94-7.29c1.25-2.26,2.38-4.19,3.4-5.81c1.02-1.61,1.82-2.74,2.41-3.39
			c-0.5,0.09-1.02,0.07-1.56-0.07c-0.54-0.14-1.02-0.21-1.43-0.21c-1.09,0-1.96,0.39-2.62,1.17c-0.66,0.78-1.37,1.87-2.14,3.25
			c-2.04,3.83-4.09,7.86-6.17,12.08c-0.01,0-0.03,0-0.04,0c-0.12,0.28-0.25,0.57-0.37,0.85c-1.23,2.51-2.44,5-3.64,7.48
			c-0.48,0.89-0.98,1.77-1.49,2.65c-0.06,0.11-0.13,0.22-0.19,0.33c0,0,0,0.01,0,0.01c-2.05,3.44-4.38,6.3-7,8.58
			c-2.7,2.35-5.84,3.53-9.42,3.53c-2.7,0-4.64-0.93-5.82-2.79c-1.18-1.86-1.77-4.21-1.77-7.05c0-3.1,0.59-6.5,1.77-10.18
			c1.18-3.68,2.75-7.19,4.71-10.51c1.96-3.33,4.14-6.05,6.54-8.18c2.4-2.13,4.86-3.2,7.39-3.2c2.09,0,3.14,1.15,3.14,3.46
			c0,1.06-0.18,2.13-0.52,3.19c-0.35,1.15-0.92,2.35-1.7,3.59c-0.64,1.01-1.24,1.9-1.82,2.67c-0.14,0.18-0.27,0.36-0.4,0.52
			c0.52,0.53,1.13,0.8,1.83,0.8c0.78,0,1.72-0.44,2.81-1.33c0.07-0.05,0.13-0.11,0.19-0.16c1.01-0.87,1.93-1.99,2.75-3.37
			c0.87-1.46,1.31-3.13,1.31-4.99c0-1.95-0.72-3.66-2.16-5.12c-1.44-1.46-3.82-2.2-7.13-2.2c-3.14,0-6.24,0.95-9.29,2.86
			c-3.05,1.91-5.84,4.59-8.37,8.05c-1.57,2.13-3.01,4.57-4.32,7.32c-1.31,2.75-2.35,5.46-3.14,8.12c-0.79,2.66-1.18,5.01-1.18,7.05
			c0,4.35,1.15,7.81,3.47,10.38c2.31,2.57,5.87,3.86,10.66,3.86c4.01,0,7.52-1.15,10.53-3.46c0.87-0.67,1.72-1.4,2.53-2.19
			c0.17-0.16,0.33-0.33,0.5-0.5c-1,2.1-1.98,4.15-2.94,6.16c0.27-0.23,0.61-0.36,1.02-0.38c0.41-0.02,0.82-0.06,1.22-0.1
			c0.63-0.05,1.14-0.08,1.53-0.1c0.38-0.02,0.74-0.33,1.05-0.93c1.9-3.82,3.69-6.8,5.37-8.92c1.68-2.12,3.08-3.73,4.21-4.84
			c1.18-1.15,2.15-1.96,2.92-2.42c0.77-0.46,1.38-0.69,1.83-0.69c0.54,0,0.82,0.28,0.82,0.83c0,0.46-0.23,1.08-0.68,1.87
			c-1,1.71-1.81,3.12-2.45,4.25c-0.63,1.13-1.09,2.15-1.36,3.08c-0.23,0.74-0.39,1.39-0.48,1.97c-0.09,0.58-0.14,1.12-0.14,1.62
			c0,1.71,0.48,2.88,1.43,3.53c0.95,0.65,1.88,0.97,2.79,0.97c1.27,0,2.47-0.44,3.6-1.31c1.13-0.87,2.17-1.98,3.13-3.32
			c0.35-0.49,0.68-1,1-1.51c0,0,0,0.01,0,0.01c-0.03,0.32-0.05,0.63-0.05,0.94c0,1.29,0.34,2.43,1.02,3.42
			c0.68,0.99,1.86,1.49,3.53,1.49c1.27,0,2.46-0.44,3.57-1.31c1.11-0.87,2.13-1.97,3.06-3.28c0.71-1.01,1.36-2.06,1.95-3.16
			c-0.15,0.92-0.22,1.82-0.22,2.71c0,1.43,0.4,2.66,1.19,3.7c0.79,1.04,2.03,1.56,3.7,1.56c1.58,0,3.01-0.43,4.28-1.28
			c1.27-0.85,2.39-1.95,3.36-3.28c0.8-1.1,1.52-2.25,2.17-3.45c-0.15,0.94-0.23,1.86-0.23,2.76c0,1.43,0.4,2.66,1.19,3.7
			c0.79,1.04,2.03,1.56,3.7,1.56c1.58,0,3.01-0.43,4.28-1.28c1.27-0.85,2.39-1.95,3.36-3.28c0.62-0.85,1.2-1.74,1.73-2.67
			c-0.04,0.44-0.07,0.86-0.07,1.28c0,1.75,0.36,3.17,1.09,4.25c0.72,1.08,1.67,1.62,2.85,1.62c0.82,0,1.69-0.32,2.62-0.97
			c0.93-0.64,1.83-1.45,2.72-2.42c0.88-0.97,1.69-1.96,2.41-2.97c0.72-1.01,1.29-1.87,1.7-2.56c-0.18,0.78-0.33,1.52-0.44,2.21
			c-0.11,0.69-0.17,1.43-0.17,2.21c0,1.84,0.4,3.07,1.19,3.66c0.79,0.6,1.71,0.9,2.75,0.9c1.09,0,2.13-0.44,3.13-1.31
			c1-0.87,1.92-1.95,2.79-3.21c0.86-1.27,1.61-2.52,2.24-3.77c0.63-1.24,1.13-2.23,1.49-2.97c0.23-0.51,0.4-0.86,0.51-1.07
			c0.11-0.21,0.19-0.4,0.24-0.59c0,0,0,0,0,0c0.05-0.14,0.27-0.69,0.68-1.66c0.41-0.97,0.86-1.94,1.36-2.9
			c0.63-1.29,1.31-2.3,2.04-3.04c0.72-0.74,1.38-1.11,1.97-1.11c0.95,0,1.43,0.81,1.43,2.42c0,1.2-0.23,2.65-0.68,4.35
			c-0.45,1.71-1.08,3.47-1.87,5.29c-0.79,1.82-1.72,3.51-2.79,5.08c-1.07,1.57-2.23,2.83-3.5,3.8c-1.27,0.97-2.58,1.45-3.94,1.45
			c0,0.23,0.06,0.52,0.17,0.86c0.11,0.35,0.46,0.52,1.05,0.52c0.45,0,0.84-0.07,1.16-0.21c0.32-0.14,0.68-0.3,1.09-0.48
			c1.31-0.65,2.66-1.88,4.04-3.7c1.38-1.82,2.59-3.86,3.64-6.12v1.73c0,0.97,0.2,1.95,0.61,2.94c0.41,0.99,1.02,1.82,1.83,2.49
			c0.82,0.67,1.83,1,3.06,1c1.54,0,2.9-0.41,4.08-1.24c1.18-0.83,2.22-1.91,3.13-3.25c0.91-1.34,1.7-2.73,2.38-4.18
			c0.68-1.45,1.27-2.8,1.77-4.04C147.23,43.81,146.96,43.6,146.42,43.6z M91.17,36.17c0.86-2.1,1.81-4.27,2.85-6.53
			c1.01-2.2,2.02-4.26,3.01-6.2c0.03-0.05,0.06-0.11,0.08-0.16c0.7-1.36,1.36-2.53,1.99-3.5c0.28-0.44,0.56-0.84,0.83-1.2
			c0.59-0.83,1.06-1.42,1.43-1.76c0.36-0.35,0.63-0.52,0.82-0.52c0.32,0,0.48,0.32,0.48,0.97c0,0.55-0.1,1.24-0.31,2.07
			c-0.09,0.38-0.2,0.75-0.32,1.1c-0.14,0.41-0.29,0.81-0.46,1.18c-0.36,0.85-0.75,1.72-1.17,2.61c-0.65,1.37-1.38,2.8-2.19,4.26
			c-1.34,2.42-2.78,4.75-4.32,6.98c-1.54,2.24-3.13,4.21-4.76,5.91C89.63,40.01,90.31,38.27,91.17,36.17z M76.7,36.17
			c0.86-2.1,1.81-4.27,2.85-6.53c1.04-2.26,2.07-4.38,3.09-6.36c0.71-1.38,1.38-2.56,2.01-3.54c0.28-0.43,0.54-0.81,0.8-1.16
			c0.59-0.83,1.06-1.42,1.43-1.76c0.07-0.07,0.14-0.13,0.21-0.19c0.26-0.22,0.46-0.33,0.61-0.33c0.25,0,0.41,0.21,0.46,0.62
			c0.01,0.1,0.02,0.22,0.02,0.34c0,0.55-0.1,1.24-0.31,2.07c-0.11,0.46-0.25,0.9-0.39,1.32c-0.12,0.33-0.25,0.66-0.39,0.96
			c-0.91,2.17-2.03,4.46-3.36,6.88c-1.34,2.42-2.78,4.75-4.32,6.98c-1.54,2.24-3.13,4.21-4.76,5.91
			C75.16,40.01,75.83,38.27,76.7,36.17z"/>
	</g>
</g>
</svg>
